<svg id="Layer_1" data-name="Layer 1" xmlns="http://www.w3.org/2000/svg" viewBox="0 0 62 75.17"><defs><style>.cls-1{fill:#ffd56b;}.cls-1,.cls-2{stroke:#231f20;stroke-miterlimit:10;stroke-width:3px;}.cls-2{fill:#72bf44;}</style></defs><title>bamboo</title><polygon class="cls-1" points="28.02 71.23 18.52 71.23 19.77 56.73 28.02 56.73 28.02 71.23"/><polygon class="cls-1" points="28.02 53.23 19.77 53.23 20.52 38.73 27.11 38.73 28.02 53.23"/><polygon class="cls-1" points="27.19 35.23 20.61 35.23 20.61 20.73 25.36 19.23 27.19 35.23"/><polygon class="cls-1" points="25.36 15.9 20.61 17.23 19.77 2.31 23.27 1.73 25.36 15.9"/><polygon class="cls-1" points="31.77 73.23 42.27 70.98 42.27 56.48 34.9 56.48 31.77 73.23"/><polygon class="cls-1" points="34.9 52.98 42.27 52.98 41.02 38.48 36.9 35.11 34.9 52.98"/><polygon class="cls-1" points="36.98 31.4 41.02 34.23 42.56 17.81 39.06 17.23 36.98 31.4"/><path class="cls-2" d="M53.23,10.22A17,17,0,0,0,44,12a17,17,0,0,0-6.47,6.8A17,17,0,0,0,46.76,17,17.08,17.08,0,0,0,53.23,10.22Z" transform="translate(-8.55 -2.14)"/><path class="cls-2" d="M26.19,35.7a17,17,0,0,0-6.26-7,17,17,0,0,0-9.16-2,17.13,17.13,0,0,0,6.25,7A17.16,17.16,0,0,0,26.19,35.7Z" transform="translate(-8.55 -2.14)"/><path class="cls-2" d="M68.23,31a17.1,17.1,0,0,0-9.3,1.27,17.15,17.15,0,0,0-6.82,6.46,17.14,17.14,0,0,0,9.31-1.27A17.08,17.08,0,0,0,68.23,31Z" transform="translate(-8.55 -2.14)"/></svg>