<?xml version="1.0" encoding="utf-8"?>
<!-- Generator: Adobe Illustrator 22.0.1, SVG Export Plug-In . SVG Version: 6.00 Build 0)  -->
<svg version="1.1" id="Layer_1" xmlns="http://www.w3.org/2000/svg" xmlns:xlink="http://www.w3.org/1999/xlink" x="0px" y="0px"
	 viewBox="0 0 32 32" style="enable-background:new 0 0 32 32;" xml:space="preserve">
<style type="text/css">
	.st0{fill:#DEDEDE;}
	.st1{fill:#3E295E;}
	.st2{fill:#429946;}
	.st3{fill:#F5EB30;}
	.st4{fill:#FFFFFF;}
</style>
<path class="st0" d="M31.1,12.5c-0.3-0.5-1-0.6-1.6-0.5c-2.4,0.3-4.1,2.9-4.1,2.9s-2.8,0.6-3.5,0.6c-1,0.1-1-0.3-1.4-1.1
	c-0.4-0.6-1.1-0.7-1.8-0.6l-0.2-1.7c0,0,1.4-1,1.4-2.2c0-1.2-1-1.5-1-1.5s-0.2-3.6-2.5-4.1s-3.5,0.4-3.5,0.4s-5-2.2-7.3,1
	c0,0-4.1,0.8-4.5,3.8s-0.5,4.2,0.6,5.5c1.1,1.3,1.5,1.6,2.5,1.5c1-0.1,1.6-0.4,1.6-0.4s0.7,1.2,1.1,3.3c0.1,0.4,0.2,0.8,0.2,1.1
	c0,0.1-0.1,0.3-0.1,0.4c-0.3,1.7,0.8,3.2,1.4,4.7c0.4,0.9,0.8,2.1,1.7,2.6c0.7,0.4,1.5,0.8,2.3,1c1.1,0.3,2.2,0.6,3.2,0.6
	c1.7,0,3.1-0.4,4.3-1.7c0.9-1,1.2-1.9,1.7-3.2c0.4-1.1,1-1.7,1.8-2.5c0.4-0.4,0.7-1,1.1-1.4c0.5-0.5,1.2-0.8,1.8-1.1
	c0.7-0.4,1.3-0.9,2-1.3c0.5-0.4,1.1-0.7,1.5-1.2c0.4-0.5,0.7-1.2,1-1.9c0.2-0.4,0.3-0.8,0.3-1.3C31.2,13.7,31.4,13,31.1,12.5
	L31.1,12.5z"/>
<path class="st1" d="M13.7,13.4c-0.1,0-0.3,0-0.5,0c-3.6,0.3-5.7,3.4-6.3,6.8c-0.3,1.7,0.8,3.2,1.4,4.7c0.4,0.9,0.8,2.1,1.7,2.6
	c0.7,0.4,1.5,0.8,2.3,1c1.1,0.3,2.2,0.6,3.2,0.6c1.7,0,3.1-0.4,4.3-1.7c0.9-1,1.2-1.9,1.7-3.2c0.4-1.1,1-1.7,1.8-2.5
	c0.4-0.4,0.7-1,1.1-1.4c0.5-0.5,1.2-0.8,1.8-1.1c0.7-0.4,1.3-0.9,2-1.3c0.5-0.4,1.1-0.7,1.5-1.2c0.4-0.5,0.7-1.2,1-1.9
	c0.2-0.4,0.3-0.8,0.3-1.3c0.1-0.6,0.2-1.2-0.1-1.7c-0.3-0.5-1-0.6-1.6-0.5c-2.4,0.3-4.1,2.9-4.1,2.9s-2.8,0.6-3.5,0.6
	c-1,0.1-1-0.3-1.4-1.1c-0.5-0.8-1.6-0.7-2.4-0.5c-0.8,0.2-1.3,0.7-2.2,0.6C15,13.7,14.3,13.5,13.7,13.4L13.7,13.4z"/>
<path class="st2" d="M25,16c0.3,0,0.6,0.3,0.8,0.4c0.1,0.1,0.2,0.1,0.2,0.2c1.8-1.7,3.2-1.7,3.8-1.6c0.8-2,0.6-4.1-1.8-2.7l-0.1,0
	c0.2,0.2,0.3,0.6,0.2,1.1c-0.1,0.5-0.5,0.9-0.8,0.9c-0.3-0.1-0.4-0.6-0.3-1.1c0-0.1,0.1-0.2,0.1-0.3c-1.8,1.3-2.3,2.8-2.3,2.8
	l-0.1-0.9c0,0-0.6,0.4-3.8,0.5c-1,0.1-2.3,0.2-3.2,0.7c-0.9,0.5-1.5,1.3-2.4,1.8c-0.8,0.4-1.4,0.5-2.2,0.3c-0.9-0.3-1.6-0.8-2.6-0.3
	c0.9-1,2.9-1.2,4.1-1c0.6,0.1,1.2,0.3,1.7-0.1c0.3-0.2,0.5-0.7,0.3-1.1c-0.2-0.5-0.6-0.4-1-0.5c-1-0.3-1.9-0.8-3-0.6
	c-1.5,0.3-2.8,1.3-3.7,2.5c-0.7,0.8-0.8,1.6-1,2.6c-0.3,1.2-0.5,2.3,0,3.4c1,2.1,4.4,3.4,7,1.4c0,0-0.5,1-2,1.4c0,0,4.1-0.2,6.1-1.4
	c2-1.2,3.5-3.2,3.5-3.2s-2.1,0.7-3.7,1.8c0,0,2.4-1.9,3.7-2.4c1.2-0.6,5.8-3.1,7-5.1c-0.3-0.1-1.1-0.1-2.1,0.5
	c-0.1,0-0.2,0.1-0.2,0.1c0,0.2,0.1,0.6,0.1,0.7c0,0.2,0,0.6-0.2,0.8c-0.4,0.5-0.5-0.5-0.9-0.8c-0.7,0.5-1.3,1.1-3,1.7
	c-0.2,0.1-0.4,0.2-0.6,0.2c0,0.2-0.1,0.5-0.1,0.6c-0.1,0.2-0.1,0.5-0.3,0.7c-0.5,0.4-0.3-0.5-0.6-0.9C21,19.3,20,19.6,19,20
	c0,0.2-0.1,0.5-0.1,0.6c-0.1,0.2-0.1,0.5-0.3,0.7c-0.5,0.4-0.3-0.5-0.6-0.9c-1.7,0.7-3.1,1.2-3.4,1.5c-0.5,0.6,0.1,1.7-0.5,1.8
	c-0.7,0.1-0.5-0.9-0.5-0.9c0.2-1,1.3-1.7,2.9-2.3c0-0.4-0.5-1.1,0.1-1c0.2,0,0.5,0.4,0.7,0.6c0,0,0.1,0.1,0.1,0.1
	c0.9-0.3,1.9-0.6,2.9-0.9c0.1-0.4-0.5-1.2,0.1-1.1c0.2,0,0.5,0.4,0.7,0.6c0.1,0.1,0.1,0.1,0.2,0.2l0,0l0,0c0,0,0.1,0,0.1,0
	c1.3-0.4,2.6-0.9,3.5-1.4C25.5,16.9,24.3,16.1,25,16z"/>
<path class="st3" d="M29.8,15.3c-0.2,0-0.6-0.1-1.1,0.1c-0.4,0.2-0.8,0.3-1.2,0.5c0,0,0,0-0.1,0c0,0.2,0.1,0.6,0.1,0.7
	c0,0.2,0,0.6-0.2,0.8c-0.4,0.5-0.5-0.5-0.9-0.8c-0.7,0.5-1.3,1.1-3,1.7c-0.2,0.1-0.4,0.2-0.6,0.2c0,0.2-0.1,0.5-0.1,0.6
	c-0.1,0.2-0.1,0.5-0.3,0.7c-0.5,0.4-0.3-0.5-0.6-0.9C21,19.3,20,19.6,19,20c0,0.2-0.1,0.5-0.1,0.6c-0.1,0.2-0.1,0.5-0.3,0.7
	c-0.5,0.4-0.3-0.5-0.6-0.9c-1.7,0.7-3.1,1.2-3.4,1.5c-0.5,0.6,0.1,1.7-0.5,1.8c-0.4,0.1-0.5-0.3-0.5-0.6c-0.7,0.5-2.4,0.7-1.9,2.1
	c1.1,0.1,2.3-0.1,3.4-1c0,0-0.5,1-2,1.4c0,0,4.1-0.2,6.1-1.4c2-1.2,3.5-3.2,3.5-3.2s-2.1,0.7-3.7,1.8c0,0,2.4-1.9,3.7-2.4
	C24,19.8,28.6,17.3,29.8,15.3L29.8,15.3z"/>
<path class="st4" d="M13.6,17.8c-0.3,0-0.6-0.1-0.8-0.3c-0.1-0.1-0.2-0.2-0.2-0.4c0.1-0.2,0.4-0.1,0.5-0.1c0.3,0,0.4,0.3,0.6,0.5
	c0,0,0.1-0.4,0.2-0.4c0.1-0.1,0.5,0,0.7,0c0.6,0.1,0.2,0.4-0.1,0.5C14.3,17.8,14,17.8,13.6,17.8L13.6,17.8z"/>
<path class="st2" d="M18.7,15.2c-0.3,0.1-1.1,0.7-1,0.1c0-0.3,0.2-0.7,0.4-1c0.3-0.4,0.9-0.6,1.4-0.4c0.3,0.1,0.9,0.6,0.5,0.9
	C19.6,15.1,19.1,15.1,18.7,15.2L18.7,15.2z"/>
<path class="st4" d="M9.3,25.3c0.1,1.1,0.9,1.9,1.8,2.2c1.8,0.6,5.1,1.1,5.1,1.1s-0.2-1.2-0.9-1.8c-0.5-0.5-1.5-0.5-2.1-0.5
	c-0.9-0.1-1.8-0.3-2.7-0.6C10.1,25.6,9.6,25.3,9.3,25.3L9.3,25.3z M16.7,28.5c0,0,0-1.8,0.7-2.1c0.8-0.4,2.6-1.3,3.4-2.1
	c0,0-0.3,1.8-1.7,2.9C17.7,28.3,16.7,28.5,16.7,28.5L16.7,28.5z"/>
<path class="st1" d="M18.5,13.5l-0.3-2.1c0,0,1.4-1,1.4-2.2c0-1.2-1-1.5-1-1.5s-0.2-3.6-2.5-4.1S12.6,4,12.6,4s-5-2.2-7.3,1
	c0,0-4.1,0.8-4.5,3.8S0.4,13,1.5,14.3C2.7,15.6,3,15.9,4,15.8c1-0.1,1.6-0.4,1.6-0.4s0.7,1.2,1.1,3.3c0.5,2.1,0.5,2.3,0.5,2.3
	s0.1-4.4,3.3-6.1c3.2-1.7,4.3-0.8,5.2-0.4c0.9,0.4,1.4,0.7,1.4,0.7l0.5-0.9l0.5-0.5L18.5,13.5L18.5,13.5z"/>
<path class="st4" d="M8.8,10.9c-0.3,0.2-0.4,0.1-0.6,0.4c-0.1,0.2-0.1,0.5-0.1,0.8c0.1,0.5,0.3,0.9,0.3,1.4c0-0.2-0.5-0.5-0.7-0.6
	c-0.2-0.2-0.5-0.3-0.8-0.3c-0.6,0.1-0.9,1.4-1,2l0.3,0.5c0,0,0.6,1,1,2.7c0.5-1.3,1.4-2.6,3-3.5c1.4-0.7,2.5-1.1,3.5-1.1
	c0.9,0,1.6,0.3,2,0.5c0.1,0,0.2,0.1,0.3,0.1c0.3,0.1,0.6,0.3,0.8,0.4l0.2-0.4l0.6-0.6l0.1-0.1l-0.3-2.1c-0.5-0.6-2.8-2.1-2.9-0.5
	c0,0.4,0.1,0.9,0,1.2c-0.1-0.1-0.2-0.3-0.2-0.4c-0.2-0.4-0.4-0.7-0.7-1C12.4,9.1,10.1,10.2,8.8,10.9L8.8,10.9z"/>
<path class="st4" d="M18.4,8.4l-0.5-0.2l0-0.5c0,0-0.2-3.1-1.9-3.4c-0.6-0.1-2.1-0.4-1.9,0.6c0,0.3,0.2,0.7,0.3,1c0,0,0.1,0.9,0,0.8
	c-0.1-0.1-0.1-0.2-0.2-0.3c-0.2-0.3-0.3-0.5-0.5-0.8C12.5,4.4,10.6,4,9.1,4C8.6,4,6.5,4.1,6.9,5.1C7,5.4,7.4,5.6,7.7,5.8
	c0.2,0.1,0.6,0.4,0.8,0.4c-0.2,0-0.4-0.1-0.6-0.1C7.3,6,6.8,5.9,6.2,5.9c-0.6,0-1.4,0-2,0.3C4,6.2,3.7,6.5,3.4,6.6
	C3.1,6.7,2.8,7,2.6,7.2c-0.5,0.5-0.9,1.1-1,1.8c-0.4,2.9-0.4,3.9,0.5,4.9c1,1.1,1.2,1.3,1.7,1.3c0.1,0,0.1,0,0.2,0
	c0.7-0.1,1.6-0.4,1.4-1.4c-0.1-0.3-0.2-0.6-0.4-0.8c-0.2-0.2-0.8-0.4-0.9-0.7c0.7,0.1,1.4,0.1,2-0.1c0.3-0.1,0.6-0.3,0.8-0.5
	c0.3-0.3,0.5-0.6,0.8-0.9c0.4-0.3,0.8-0.6,1.2-0.8c0.6-0.3,1.2-0.5,1.8-0.6c0.6-0.1,1.3-0.6,1.3-1.3c0-0.4-0.2-1-0.6-1.2
	c0.6,0.3,1.2,0.4,1.3,1.2c0,0.2-0.1,0.5-0.1,0.7c-0.1,0.4,0.2,0.3,0.5,0.3c0.3,0,0.7,0,1,0c0.4,0,0.8,0.1,1.2,0.2
	c0.5,0.1,0.9,0.3,1.4,0.2c0.2,0,1-0.4,1-0.7c0,0.4-0.2,0.7-0.5,1c-0.1,0.1-0.5,0.2-0.5,0.4c0,0.1,0.3,0.2,0.4,0.3
	c0.2,0.1,0.4,0.3,0.6,0.5l0.2-0.1c0.4-0.3,1.1-1,1.1-1.7C18.9,8.6,18.5,8.4,18.4,8.4L18.4,8.4z"/>
</svg>
