<svg id="Layer_1" data-name="Layer 1" xmlns="http://www.w3.org/2000/svg" viewBox="0 0 77.8 59.9"><defs><style>.cls-1{fill:#ffd490;}.cls-1,.cls-2,.cls-4,.cls-5{stroke:#231f20;}.cls-1,.cls-2,.cls-4,.cls-5,.cls-6{stroke-miterlimit:10;}.cls-1,.cls-4,.cls-5{stroke-width:5.15px;}.cls-2,.cls-6{fill:none;}.cls-2{stroke-width:2px;}.cls-3{fill:#231f20;}.cls-4{fill:#fff;}.cls-5{fill:#734c1e;}.cls-6{stroke:#2f8942;stroke-width:3px;}</style></defs><title>zookeeper</title><path class="cls-1" d="M16.05,18.42H61.74a0,0,0,0,1,0,0V51.65a5.67,5.67,0,0,1-5.67,5.67H21.73a5.67,5.67,0,0,1-5.67-5.67V18.42A0,0,0,0,1,16.05,18.42Z"/><line class="cls-2" x1="23.93" y1="24.77" x2="33.15" y2="26.55"/><rect class="cls-2" x="25.77" y="25.45" width="5.81" height="5.81" rx="2.91" ry="2.91"/><rect class="cls-3" x="26.9" y="27.57" width="3.69" height="3.69" rx="1.84" ry="1.84"/><line class="cls-2" x1="53.15" y1="24.77" x2="43.93" y2="26.55"/><rect class="cls-2" x="46.6" y="35.5" width="5.81" height="5.81" rx="2.91" ry="2.91" transform="translate(97.9 66.76) rotate(-180)"/><rect class="cls-3" x="47.6" y="37.62" width="3.69" height="3.69" rx="1.84" ry="1.84" transform="translate(97.78 68.89) rotate(180)"/><path class="cls-4" d="M26.67,58.24V53.18a1.91,1.91,0,0,1,1.91-1.91H51.42a1.91,1.91,0,0,1,1.91,1.91v5.06" transform="translate(-1.1 -10.05)"/><path class="cls-2" d="M37.5,39.38c-.73,2.35,4.12,3.35,4.12.62" transform="translate(-1.1 -10.05)"/><path class="cls-5" d="M26.47,2.57H51.33a9.5,9.5,0,0,1,9.5,9.5V17.2a0,0,0,0,1,0,0H17a0,0,0,0,1,0,0V12.07a9.5,9.5,0,0,1,9.5-9.5Z"/><path class="cls-3" d="M75.79,25.25H4.21c-4.14,0-4.15,6.44,0,6.44H75.79c4.14,0,4.15-6.44,0-6.44Z" transform="translate(-1.1 -10.05)"/><line class="cls-6" x1="20" y1="11.32" x2="57.8" y2="11.32"/></svg>